<?xml version="1.0" standalone="no"?>
<!DOCTYPE svg PUBLIC "-//W3C//DTD SVG 20010904//EN"
 "http://www.w3.org/TR/2001/REC-SVG-20010904/DTD/svg10.dtd">
<svg version="1.0" xmlns="http://www.w3.org/2000/svg"
 width="700.000000pt" height="700.000000pt" viewBox="0 0 700.000000 700.000000"
 preserveAspectRatio="xMidYMid meet">
<metadata>
Created by potrace 1.11, written by Peter Selinger 2001-2013
</metadata>
<g transform="translate(0.000000,700.000000) scale(0.100000,-0.100000)"
fill="#000000" stroke="none">
<path d="M2755 6799 c-16 -5 -41 -10 -55 -13 -14 -2 -74 -18 -135 -36 -731
-212 -1387 -676 -1821 -1290 -235 -334 -456 -814 -520 -1129 -3 -14 -7 -28
-10 -33 -3 -5 -7 -21 -10 -36 -2 -15 -11 -58 -19 -97 -18 -85 -22 -108 -35
-210 -6 -44 -13 -97 -16 -117 -20 -146 -19 -523 1 -678 3 -19 7 -55 10 -80 33
-281 126 -628 242 -899 316 -741 869 -1332 1590 -1699 65 -33 147 -72 183 -87
36 -15 79 -33 95 -40 86 -38 366 -125 475 -148 14 -3 36 -8 50 -11 14 -3 50
-10 80 -16 30 -6 64 -12 75 -14 12 -2 48 -7 80 -11 33 -4 69 -9 80 -11 63 -13
197 -19 405 -19 303 0 395 9 715 69 139 26 431 118 591 186 753 320 1360 889
1720 1610 166 332 292 749 330 1090 4 36 8 76 10 90 21 163 20 498 -1 685 -6
48 -17 139 -20 150 -1 6 -5 33 -9 60 -9 54 -58 275 -77 340 -89 310 -210 585
-393 892 -43 72 -192 279 -255 353 l-54 65 -80 1 c-137 2 -305 -39 -480 -119
l-68 -31 -22 25 c-12 13 -55 65 -96 114 -134 164 -308 347 -421 442 -42 35
-166 123 -174 123 -3 0 -27 13 -53 28 -89 52 -181 83 -393 133 -11 3 -37 -41
-92 -151 -80 -161 -94 -192 -160 -350 -64 -155 -129 -362 -144 -460 -3 -19 -7
-42 -9 -50 -2 -8 -7 -51 -10 -95 -3 -44 -8 -104 -10 -132 -4 -45 -2 -53 13
-53 174 -5 307 -30 387 -73 41 -22 127 -85 179 -132 l30 -26 -55 -47 c-266
-231 -555 -531 -723 -753 -31 -41 -60 -78 -64 -84 -4 -5 -20 -28 -36 -50 l-28
-40 6 120 c4 66 8 131 10 145 3 14 7 52 10 85 4 33 8 71 10 85 3 14 7 43 10
65 3 22 8 51 10 65 5 31 26 164 32 205 2 17 8 57 14 90 28 176 42 282 56 409
22 202 21 506 -1 616 -2 14 -10 50 -15 80 -79 403 -343 697 -784 874 -93 38
-103 40 -151 25z"/>
</g>
</svg>
